<svg xmlns="http://www.w3.org/2000/svg" viewBox="0 0 1200 500" width="1200" height="500"><rect width="1200" height="500" fill="#E1140A"/><circle cx="120" cy="60" r="150" fill="#F4ECDF" opacity=".35"/><g transform="translate(640 50) scale(1)"><circle cx="200" cy="210" r="150" fill="#F4ECDF"/><path d="M110 60 A90 90 0 0 1 290 60 Z" fill="#F2B632"/><g transform="translate(46.39999999999998 46.39999999999998) scale(6.4)" stroke-linecap="round" stroke-linejoin="round"><path d="M12 20 H32 V27 A10 10 0 0 1 12 27 Z" fill="none" stroke="#E1140A" stroke-width="4.2"/><path d="M32 22 H35 A4 4 0 0 1 35 30 H32 M8 40 H38 M18 9 C16 12 20 13 18 16 M26 9 C24 12 28 13 26 16" fill="none" stroke="#1C1512" stroke-width="2"/></g></g></svg>